<svg aria-hidden="true" style="position: absolute; width: 0; height: 0; overflow: hidden;" version="1.1"
    xmlns="http://www.w3.org/2000/svg" xmlns:xlink="http://www.w3.org/1999/xlink">
    <defs>
        <symbol id="facebook" viewBox="0 0 32 32">
            <path
                d="M21.33 5.313h2.921v-5.088c-0.504-0.069-2.237-0.225-4.256-0.225-4.212 0-7.097 2.649-7.097 7.519v4.481h-4.648v5.688h4.648v14.312h5.699v-14.311h4.46l0.708-5.688h-5.169v-3.919c0.001-1.644 0.444-2.769 2.735-2.769z">
            </path>
        </symbol>
        <symbol id="instagram" viewBox="0 0 32 32">
            <path
                d="M31.969 9.408c-0.075-1.7-0.35-2.869-0.744-3.882-0.406-1.075-1.032-2.038-1.851-2.838-0.8-0.813-1.769-1.444-2.832-1.844-1.019-0.394-2.182-0.669-3.882-0.744-1.713-0.081-2.257-0.1-6.601-0.1s-4.888 0.019-6.595 0.094c-1.7 0.075-2.869 0.35-3.882 0.744-1.075 0.406-2.038 1.031-2.838 1.85-0.813 0.8-1.444 1.769-1.844 2.832-0.394 1.019-0.669 2.182-0.744 3.882-0.081 1.713-0.1 2.257-0.1 6.601s0.019 4.888 0.094 6.595c0.075 1.7 0.35 2.869 0.744 3.882 0.406 1.075 1.038 2.038 1.85 2.838 0.8 0.813 1.769 1.444 2.832 1.844 1.019 0.394 2.182 0.669 3.882 0.744 1.706 0.075 2.25 0.094 6.595 0.094s4.888-0.019 6.595-0.094c1.7-0.075 2.869-0.35 3.882-0.744 2.151-0.832 3.851-2.532 4.682-4.682 0.394-1.019 0.669-2.182 0.744-3.882 0.075-1.707 0.094-2.251 0.094-6.595s-0.006-4.888-0.081-6.595zM29.087 22.473c-0.069 1.563-0.331 2.407-0.55 2.969-0.538 1.394-1.644 2.5-3.038 3.038-0.563 0.219-1.413 0.481-2.969 0.55-1.688 0.075-2.194 0.094-6.464 0.094s-4.782-0.019-6.464-0.094c-1.563-0.069-2.407-0.331-2.969-0.55-0.694-0.256-1.325-0.663-1.838-1.194-0.531-0.519-0.938-1.144-1.194-1.838-0.219-0.563-0.481-1.413-0.55-2.969-0.075-1.688-0.094-2.194-0.094-6.464s0.019-4.782 0.094-6.464c0.069-1.563 0.331-2.407 0.55-2.969 0.256-0.694 0.663-1.325 1.2-1.838 0.519-0.531 1.144-0.938 1.838-1.194 0.563-0.219 1.413-0.481 2.969-0.55 1.688-0.075 2.194-0.094 6.464-0.094 4.276 0 4.782 0.019 6.464 0.094 1.563 0.069 2.407 0.331 2.969 0.55 0.694 0.256 1.325 0.662 1.838 1.194 0.531 0.519 0.938 1.144 1.194 1.838 0.219 0.563 0.481 1.413 0.55 2.969 0.075 1.688 0.094 2.194 0.094 6.464s-0.019 4.77-0.094 6.458z">
            </path>
            <path
                d="M16.059 7.783c-4.538 0-8.22 3.682-8.22 8.22s3.682 8.22 8.22 8.22c4.539 0 8.22-3.682 8.22-8.22s-3.682-8.22-8.22-8.22zM16.059 21.335c-2.944 0-5.332-2.388-5.332-5.332s2.388-5.332 5.332-5.332c2.944 0 5.332 2.388 5.332 5.332s-2.388 5.332-5.332 5.332z">
            </path>
            <path
                d="M26.524 7.458c0 1.060-0.859 1.919-1.919 1.919s-1.919-0.859-1.919-1.919c0-1.060 0.859-1.919 1.919-1.919s1.919 0.859 1.919 1.919z">
            </path>
        </symbol>
        <symbol id="linkedin" viewBox="0 0 32 32">
            <path
                d="M31.992 32v-0.001h0.008v-11.736c0-5.741-1.236-10.164-7.948-10.164-3.227 0-5.392 1.771-6.276 3.449h-0.093v-2.913h-6.364v21.364h6.627v-10.579c0-2.785 0.528-5.479 3.977-5.479 3.399 0 3.449 3.179 3.449 5.657v10.401h6.62z">
            </path>
            <path d="M0.528 10.636h6.635v21.364h-6.635v-21.364z"></path>
            <path
                d="M3.843 0c-2.121 0-3.843 1.721-3.843 3.843s1.721 3.879 3.843 3.879c2.121 0 3.843-1.757 3.843-3.879-0.001-2.121-1.723-3.843-3.843-3.843v0z">
            </path>
        </symbol>
        <symbol id="logo" viewBox="0 0 40 32">
            <path
                d="M22.718 9.734l-0.76-0.577c-0.119-0.096-0.271-0.141-0.423-0.126s-0.292 0.089-0.39 0.206l-10.521 12.013 0.162 0.179 2.606-2.389c-0.087-0.035-0.159-0.099-0.203-0.181s-0.058-0.177-0.040-0.268 0.069-0.173 0.142-0.231c0.073-0.058 0.164-0.089 0.258-0.088 0.084 0 0.167 0.027 0.234 0.077s0.118 0.12 0.143 0.2l3.435-3.168c0.053-0.042 0.118-0.065 0.186-0.065s0.133 0.023 0.186 0.065l0.174 0.127c0.059 0.042 0.131 0.060 0.203 0.052s0.138-0.044 0.185-0.098l4.491-5.008c0.048-0.050 0.084-0.109 0.107-0.174s0.031-0.134 0.024-0.202c-0.007-0.068-0.028-0.135-0.063-0.194s-0.082-0.111-0.138-0.151z">
            </path>
            <path
                d="M27.663 13.115c-2.302 1.629-4.882 2.831-7.614 3.548-2.711 0.686-5.486 1.096-8.281 1.223 0.056 0.41 0.158 0.812 0.302 1.2 1.578 1.419 13.463-1.004 15.784-3.808 0.493-0.583-0.192-2.164-0.192-2.164zM13.55 19.041c-0.078 0-0.154-0.023-0.219-0.066s-0.115-0.104-0.145-0.176c-0.030-0.072-0.038-0.151-0.022-0.227s0.053-0.146 0.108-0.201c0.055-0.055 0.126-0.092 0.202-0.107s0.156-0.007 0.228 0.022c0.072 0.030 0.134 0.080 0.177 0.145s0.066 0.14 0.066 0.218c0.001 0.052-0.009 0.103-0.028 0.151s-0.049 0.092-0.085 0.128c-0.037 0.037-0.081 0.066-0.129 0.085s-0.1 0.029-0.152 0.028z">
            </path>
            <path
                d="M2.321 12.284l0.093-0.398 1.509 0.34c0.124 0.229 0.201 0.48 0.226 0.739 0.029 0.274 0.011 0.551-0.052 0.819-0.075 0.372-0.247 0.719-0.499 1.004-0.24 0.27-0.549 0.469-0.894 0.577-0.356 0.109-0.734 0.123-1.097 0.040-0.364-0.078-0.699-0.254-0.969-0.508-0.266-0.244-0.457-0.558-0.551-0.906-0.104-0.378-0.104-0.776 0-1.154 0.062-0.283 0.174-0.552 0.331-0.796 0.148-0.222 0.347-0.406 0.58-0.537l0.209 0.317c-0.2 0.122-0.372 0.285-0.504 0.478s-0.221 0.412-0.262 0.641c-0.072 0.298-0.066 0.61 0.017 0.906 0.078 0.281 0.233 0.534 0.447 0.733 0.22 0.212 0.496 0.358 0.795 0.421 0.29 0.081 0.598 0.081 0.888 0 0.278-0.091 0.528-0.252 0.725-0.467 0.203-0.232 0.343-0.512 0.406-0.814 0.095-0.365 0.071-0.751-0.070-1.102l-1.329-0.335z">
            </path>
            <path
                d="M5.606 8.655l-1.352 1.794 0.58 1.033-0.267 0.358-2.147-3.895 0.25-0.34 4.37 0.935-0.273 0.358-1.161-0.242zM5.223 8.563l-2.321-0.519 1.161 2.071 1.161-1.552z">
            </path>
            <path d="M5.223 4.933l0.348-0.26 2.211 2.943 1.822-1.356 0.22 0.294-2.165 1.61-2.437-3.231z"></path>
            <path d="M8.878 2.527l0.389-0.173 1.532 3.335 2.072-0.935 0.151 0.335-2.46 1.114-1.683-3.675z"></path>
            <path
                d="M16.527 3.854l0.087 0.364-2.797 0.652-0.928-3.935 2.716-0.629 0.081 0.358-2.321 0.537 0.331 1.396 2.043-0.479 0.087 0.358-2.048 0.473 0.348 1.46 2.402-0.554z">
            </path>
            <path
                d="M20.513 3.999l-0.969-1.269c-0.108 0.006-0.217 0.006-0.325 0l-1.091 0.035 0.041 1.281h-0.429l-0.134-4.039 1.544-0.006c0.436-0.040 0.873 0.077 1.23 0.329 0.151 0.121 0.272 0.274 0.354 0.448s0.124 0.364 0.122 0.556c0.017 0.285-0.058 0.568-0.215 0.808-0.167 0.23-0.402 0.402-0.673 0.49l1.016 1.35-0.47 0.017zM20.107 2.1c0.104-0.095 0.185-0.213 0.236-0.344s0.072-0.272 0.059-0.412c0.003-0.141-0.026-0.281-0.086-0.408s-0.147-0.241-0.257-0.33c-0.267-0.18-0.589-0.264-0.911-0.237l-1.103 0.040 0.070 2.019 1.079-0.035c0.329 0.012 0.652-0.092 0.911-0.294z">
            </path>
            <path
                d="M23.583 2.925l-0.209 1.379-0.424-0.063 0.215-1.356-1.201-2.885 0.453 0.069 1.027 2.458 1.741-2.037 0.406 0.087-2.008 2.348z">
            </path>
            <path
                d="M29.323 2.683l0.505 0.652-0.221 0.173-0.505-0.669-0.319 0.756-0.244-0.104 0.325-0.756-0.836 0.11v-0.277l0.824-0.092-0.511-0.652 0.226-0.173 0.447 0.658 0.313-0.762 0.25 0.104-0.296 0.773 0.836-0.115v0.283l-0.795 0.092z">
            </path>
            <path
                d="M31.261 7.334c-0.137-0.21-0.223-0.449-0.25-0.698l0.342-0.15c0.026 0.229 0.101 0.449 0.221 0.646 0.13 0.221 0.299 0.417 0.499 0.577 0.207 0.197 0.471 0.324 0.754 0.363 0.102 0.009 0.206-0.006 0.301-0.045s0.179-0.101 0.245-0.18c0.048-0.053 0.085-0.115 0.108-0.182s0.032-0.139 0.026-0.21c-0.019-0.141-0.067-0.276-0.139-0.398-0.109-0.177-0.227-0.348-0.354-0.514-0.154-0.201-0.294-0.413-0.418-0.635-0.094-0.166-0.146-0.352-0.151-0.542-0-0.214 0.080-0.42 0.226-0.577 0.126-0.152 0.293-0.266 0.482-0.329 0.21-0.060 0.434-0.060 0.644 0 0.271 0.088 0.522 0.229 0.737 0.415 0.179 0.148 0.337 0.319 0.47 0.508 0.123 0.175 0.216 0.371 0.273 0.577l-0.331 0.173c-0.058-0.192-0.144-0.375-0.255-0.542-0.111-0.149-0.242-0.283-0.389-0.398-0.204-0.196-0.467-0.32-0.749-0.352-0.103-0.009-0.208 0.008-0.303 0.050s-0.179 0.105-0.243 0.187c-0.049 0.052-0.087 0.114-0.11 0.182s-0.031 0.14-0.024 0.211c0.014 0.146 0.061 0.286 0.139 0.41 0.081 0.133 0.197 0.306 0.354 0.514 0.155 0.197 0.295 0.405 0.418 0.623 0.097 0.165 0.15 0.351 0.157 0.542 0 0.214-0.080 0.42-0.226 0.577-0.127 0.154-0.296 0.269-0.487 0.329-0.21 0.063-0.434 0.063-0.644 0-0.273-0.088-0.526-0.229-0.743-0.415-0.234-0.203-0.431-0.445-0.58-0.715z">
            </path>
            <path
                d="M37.098 8.176l-0.818-1.154 0.302-0.213 1.886 2.677-0.302 0.213-0.818-1.154-3.029 2.106-0.244-0.352 3.023-2.123z">
            </path>
            <path
                d="M35.799 12.919c0.104-0.349 0.305-0.661 0.58-0.9 0.269-0.24 0.598-0.405 0.952-0.479 0.361-0.082 0.737-0.068 1.091 0.040 0.341 0.112 0.648 0.311 0.888 0.577 0.25 0.286 0.42 0.632 0.493 1.004 0.096 0.365 0.096 0.748 0 1.114-0.106 0.347-0.307 0.659-0.58 0.9-0.277 0.246-0.613 0.417-0.976 0.496s-0.74 0.063-1.095-0.046c-0.344-0.107-0.651-0.307-0.888-0.577-0.249-0.284-0.419-0.629-0.493-0.998-0.089-0.373-0.079-0.763 0.029-1.131zM36.559 14.754c0.194 0.219 0.445 0.381 0.725 0.467 0.289 0.083 0.595 0.093 0.889 0.029s0.567-0.201 0.794-0.398c0.214-0.196 0.372-0.445 0.458-0.721 0.081-0.292 0.089-0.599 0.023-0.895s-0.203-0.571-0.4-0.802c-0.202-0.22-0.461-0.382-0.749-0.467-0.293-0.077-0.601-0.077-0.894 0-0.295 0.056-0.569 0.194-0.789 0.398-0.216 0.197-0.375 0.448-0.458 0.727-0.079 0.293-0.079 0.601 0 0.894 0.064 0.286 0.202 0.551 0.4 0.767z">
            </path>
            <path
                d="M35.358 19.618l1.503-0.577c0-0.104 0.035-0.208 0.064-0.317l0.284-1.044-1.23-0.317 0.11-0.41 3.923 1.044-0.395 1.46c-0.089 0.426-0.328 0.806-0.673 1.073-0.159 0.11-0.341 0.181-0.532 0.209s-0.386 0.012-0.57-0.048c-0.28-0.060-0.531-0.214-0.711-0.435s-0.28-0.497-0.281-0.782l-1.602 0.577 0.11-0.433zM37.301 19.779c0.068 0.123 0.16 0.23 0.271 0.317s0.238 0.149 0.374 0.186c0.136 0.036 0.278 0.044 0.417 0.025s0.273-0.068 0.394-0.14c0.256-0.205 0.431-0.493 0.493-0.814l0.279-1.039-1.967-0.525-0.279 1.039c-0.107 0.309-0.101 0.647 0.017 0.952z">
            </path>
            <path
                d="M33.274 23.334l-0.296-0.225 1.741-2.279 3.238 2.441-1.683 2.21-0.296-0.225 1.422-1.864-1.161-0.871-1.271 1.668-0.29-0.219 1.3-1.668-1.201-0.906-1.503 1.939z">
            </path>
            <path
                d="M31.917 27.932l-0.83 0.046v-0.277l0.83-0.006-0.447-0.687 0.226-0.144 0.441 0.692 0.36-0.773 0.249 0.133-0.395 0.727 0.83-0.046v0.283h-0.841l0.447 0.687-0.226 0.144-0.441-0.692-0.383 0.75-0.244-0.139 0.424-0.698z">
            </path>
            <path
                d="M24.372 27.471l0.702 0.387c0.118-0.225 0.282-0.422 0.482-0.579s0.431-0.27 0.679-0.332c0.231-0.072 0.473-0.097 0.714-0.075 0.209 0.016 0.409 0.088 0.58 0.208 0.155 0.116 0.268 0.277 0.325 0.462 0.070 0.228 0.058 0.473-0.035 0.692-0.146 0.299-0.342 0.57-0.58 0.802 0.191 0.102 0.369 0.228 0.528 0.375 0.109 0.112 0.191 0.249 0.238 0.398 0.030 0.116 0.032 0.238 0.005 0.355s-0.080 0.227-0.156 0.32c-0.155 0.222-0.386 0.38-0.65 0.444-0.232 0.088-0.488 0.088-0.72 0-0.103-0.044-0.194-0.111-0.267-0.196s-0.124-0.186-0.151-0.294c-0.061-0.19-0.046-0.397 0.041-0.577 0.133-0.262 0.308-0.502 0.517-0.71l-1.399-0.773c-0.053 0.272-0.065 0.55-0.035 0.825h-0.354c-0.024-0.339 0.016-0.679 0.116-1.004l-0.731-0.404 0.151-0.323zM25.382 28.048l1.538 0.848c0.202-0.191 0.368-0.416 0.493-0.664 0.064-0.167 0.064-0.352 0-0.519-0.026-0.1-0.077-0.192-0.148-0.267s-0.16-0.132-0.258-0.165c-0.241-0.081-0.502-0.081-0.743 0-0.197 0.052-0.38 0.146-0.536 0.275s-0.282 0.292-0.369 0.475l0.023 0.017zM27.564 30.356c0.038-0.064 0.062-0.135 0.070-0.208s0-0.148-0.023-0.218c-0.036-0.114-0.099-0.217-0.186-0.3-0.148-0.124-0.309-0.23-0.482-0.317-0.176 0.173-0.33 0.367-0.458 0.577-0.070 0.131-0.087 0.284-0.046 0.427 0.018 0.066 0.051 0.127 0.095 0.18s0.099 0.096 0.161 0.126c0.148 0.055 0.311 0.055 0.458 0 0.158-0.042 0.296-0.138 0.389-0.271l0.023 0.006z">
            </path>
            <path
                d="M17.299 31.919l0.081-4.039h0.412l-0.064 3.231 1.648-2.689h0.203l1.544 2.735 0.058-3.214h0.412l-0.075 4.039h-0.354l-1.706-3.018-1.805 2.96-0.354-0.006z">
            </path>
            <path
                d="M15.279 27.696c0.265 0.252 0.455 0.571 0.549 0.924s0.086 0.724-0.020 1.073c-0.095 0.357-0.286 0.682-0.551 0.941-0.258 0.252-0.582 0.428-0.934 0.508-0.372 0.084-0.759 0.072-1.126-0.035-0.365-0.089-0.701-0.27-0.975-0.525-0.261-0.248-0.448-0.564-0.54-0.912-0.089-0.36-0.083-0.736 0.019-1.092s0.295-0.68 0.561-0.939c0.253-0.252 0.57-0.431 0.917-0.519 0.37-0.083 0.756-0.071 1.12 0.035 0.369 0.093 0.707 0.28 0.981 0.542zM13.3 27.494c-0.284 0.066-0.543 0.21-0.749 0.415-0.214 0.212-0.366 0.477-0.441 0.767-0.081 0.289-0.081 0.594 0 0.883 0.068 0.281 0.215 0.537 0.424 0.738 0.219 0.212 0.488 0.366 0.783 0.444 0.295 0.075 0.604 0.075 0.899 0 0.284-0.069 0.544-0.213 0.754-0.415 0.213-0.213 0.365-0.477 0.441-0.767 0.081-0.291 0.081-0.598 0-0.889-0.074-0.28-0.223-0.535-0.429-0.739-0.22-0.213-0.492-0.364-0.789-0.439-0.292-0.080-0.601-0.080-0.894 0z">
            </path>
            <path
                d="M8.907 24.811l0.157 1.587c0.1 0.042 0.196 0.090 0.29 0.144l0.946 0.542 0.638-1.119 0.377 0.213-2.031 3.479-1.323-0.756c-0.391-0.195-0.7-0.523-0.87-0.923-0.063-0.18-0.084-0.373-0.062-0.563s0.087-0.372 0.19-0.534c0.135-0.253 0.349-0.455 0.609-0.577 0.265-0.109 0.557-0.131 0.836-0.064l-0.168-1.696 0.412 0.265zM8.246 26.634c-0.136 0.034-0.264 0.095-0.376 0.179s-0.206 0.19-0.276 0.311-0.114 0.255-0.131 0.394c-0.017 0.139-0.005 0.279 0.035 0.414 0.136 0.299 0.372 0.541 0.667 0.687l0.934 0.537 1.016-1.731-0.934-0.537c-0.268-0.2-0.599-0.3-0.934-0.283v0.029z">
            </path>
            <path
                d="M5.472 22.105l0.261-0.26 2.002 2.048-2.902 2.816-1.932-1.985 0.267-0.26 1.642 1.679 0.992-0.998-1.439-1.489 0.279-0.265 1.468 1.5 1.079-1.044-1.718-1.742z">
            </path>
            <path
                d="M1.161 19.837l0.139-0.796 0.273 0.040-0.157 0.819 0.772-0.283 0.093 0.254-0.783 0.265 0.644 0.542-0.186 0.208-0.621-0.577-0.145 0.819-0.279-0.052 0.162-0.819-0.778 0.277-0.087-0.225 0.778-0.271-0.644-0.537 0.192-0.208 0.627 0.542z">
            </path>
        </symbol>
        <symbol id="mail" viewBox="0 0 32 32">
            <path stroke-linejoin="round" stroke-linecap="round" stroke-miterlimit="4" stroke-width="1.3333"
                d="M6.4 6.667h19.2c1.32 0 2.4 1.050 2.4 2.333v14c0 1.283-1.080 2.333-2.4 2.333h-19.2c-1.32 0-2.4-1.050-2.4-2.333v-14c0-1.283 1.080-2.333 2.4-2.333z">
            </path>
            <path stroke-linejoin="round" stroke-linecap="round" stroke-miterlimit="4" stroke-width="1.3333"
                d="M26.667 9.333l-10.667 8-10.667-8"></path>
        </symbol>
        <symbol id="map-pin" viewBox="0 0 32 32">
            <path stroke-linejoin="round" stroke-linecap="round" stroke-miterlimit="4" stroke-width="1.3333"
                d="M26.667 13.818c0 7.636-10.667 14.182-10.667 14.182s-10.667-6.545-10.667-14.182c0-5.422 4.776-9.818 10.667-9.818s10.667 4.396 10.667 9.818v0z">
            </path>
            <path stroke-linejoin="round" stroke-linecap="round" stroke-miterlimit="4" stroke-width="1.3333"
                d="M16 18.667c2.209 0 4-1.791 4-4s-1.791-4-4-4-4 1.791-4 4c0 2.209 1.791 4 4 4z"></path>
        </symbol>
        <symbol id="menu" viewBox="0 0 48 32">
            <path d="M0 5.333v-5.333h48v5.333h-48zM0 18.667h48v-5.333h-48v5.333zM0 32h48v-5.333h-48v5.333z"></path>
        </symbol>
        <symbol id="close" viewBox="0 0 32 32">
            <path
                d="M31.439 3.166l-3.166-3.166-12.553 12.553-12.553-12.553-3.166 3.166 12.553 12.553-12.553 12.553 3.166 3.166 12.553-12.553 12.553 12.553 3.166-3.166-12.553-12.553 12.553-12.553z">
            </path>
        </symbol>
        <symbol id="phone" viewBox="0 0 32 32">
            <path stroke-linejoin="round" stroke-linecap="round" stroke-miterlimit="4" stroke-width="1.3333"
                d="M26.666 21.337v3.218c0.002 0.604-0.25 1.181-0.695 1.589s-1.042 0.61-1.643 0.556c-3.301-0.359-6.471-1.487-9.257-3.293-2.592-1.647-4.789-3.844-6.436-6.436-1.813-2.798-2.941-5.984-3.293-9.3-0.054-0.6 0.146-1.195 0.552-1.639s0.98-0.698 1.582-0.699h3.218c1.077-0.011 1.995 0.779 2.145 1.845 0.136 1.030 0.388 2.041 0.751 3.014 0.295 0.784 0.106 1.668-0.483 2.263l-1.362 1.362c1.527 2.685 3.75 4.909 6.436 6.436l1.362-1.362c0.595-0.589 1.479-0.777 2.263-0.483 0.973 0.363 1.984 0.615 3.014 0.751 1.079 0.152 1.872 1.088 1.845 2.177z">
            </path>
        </symbol>
        <symbol id="twitter" viewBox="0 0 32 32">
            <path
                d="M32 6.078c-1.19 0.522-2.458 0.868-3.78 1.036 1.36-0.812 2.398-2.088 2.886-3.626-1.268 0.756-2.668 1.29-4.16 1.588-1.204-1.282-2.92-2.076-4.792-2.076-3.632 0-6.556 2.948-6.556 6.562 0 0.52 0.044 1.020 0.152 1.496-5.454-0.266-10.28-2.88-13.522-6.862-0.566 0.982-0.898 2.106-0.898 3.316 0 2.272 1.17 4.286 2.914 5.452-1.054-0.020-2.088-0.326-2.964-0.808 0 0.020 0 0.046 0 0.072 0 3.188 2.274 5.836 5.256 6.446-0.534 0.146-1.116 0.216-1.72 0.216-0.42 0-0.844-0.024-1.242-0.112 0.85 2.598 3.262 4.508 6.13 4.57-2.232 1.746-5.066 2.798-8.134 2.798-0.538 0-1.054-0.024-1.57-0.090 2.906 1.874 6.35 2.944 10.064 2.944 12.072 0 18.672-10 18.672-18.668 0-0.29-0.010-0.57-0.024-0.848 1.302-0.924 2.396-2.078 3.288-3.406z">
            </path>
        </symbol>
    </defs>
</svg>